<svg width="191" height="191" viewBox="0 0 191 191" fill="none" xmlns="http://www.w3.org/2000/svg">
<path fill-rule="evenodd" clip-rule="evenodd" d="M131.074 191V117.035H155.904L159.619 88.2134H131.064V69.8105C131.064 61.4638 133.385 55.772 145.361 55.772H160.621V29.987C153.231 29.2005 145.802 28.8179 138.37 28.841C116.367 28.841 101.306 42.2779 101.306 66.9455V88.2134H76.4V117.035H101.297V191H10.5432C4.7177 191 0 186.282 0 180.457V10.5432C0 4.7177 4.7177 0 10.5432 0H180.457C186.282 0 191 4.7177 191 10.5432V180.457C191 186.282 186.282 191 180.457 191H131.074Z" fill="#7A654E"/>
</svg>
