<svg width="235" height="191" viewBox="0 0 235 191" fill="none" xmlns="http://www.w3.org/2000/svg">
<path d="M115.912 54.9849C103.7 54.9849 91.9872 59.7108 83.3517 68.1229C74.7161 76.535 69.8647 87.9444 69.8647 99.8409C69.8647 111.737 74.7161 123.147 83.3517 131.559C91.9872 139.971 103.7 144.697 115.912 144.697C128.125 144.697 139.837 139.971 148.472 131.559C157.108 123.147 161.959 111.737 161.959 99.8409C161.959 87.9444 157.108 76.535 148.472 68.1229C139.837 59.7108 128.125 54.9849 115.912 54.9849ZM115.912 128.972C107.978 128.972 100.369 125.902 94.7591 120.437C89.149 114.972 85.9972 107.56 85.9972 99.8312C85.9972 92.1026 89.149 84.6905 94.7591 79.2255C100.369 73.7605 107.978 70.6903 115.912 70.6903C123.846 70.6903 131.455 73.7605 137.065 79.2255C142.675 84.6905 145.827 92.1026 145.827 99.8312C145.827 107.56 142.675 114.972 137.065 120.437C131.455 125.902 123.846 128.972 115.912 128.972Z" fill="#7A654E"/>
<path d="M163.547 57.8787C169.686 57.8787 174.662 53.3439 174.662 47.7499C174.662 42.1559 169.686 37.6211 163.547 37.6211C157.409 37.6211 152.433 42.1559 152.433 47.7499C152.433 53.3439 157.409 57.8787 163.547 57.8787Z" fill="#7A654E"/>
<path d="M201.708 38.584C199.422 32.8287 195.928 27.6021 191.451 23.2388C186.973 18.8755 181.611 15.4717 175.706 13.2452C168.797 10.7167 161.497 9.34945 154.118 9.20175C144.608 8.79741 141.596 8.68188 117.48 8.68188C93.3643 8.68188 90.2732 8.68188 80.8421 9.20175C73.469 9.34189 66.1746 10.7094 59.2741 13.2452C53.3679 15.4691 48.0038 18.872 43.526 23.2356C39.0481 27.5992 35.5554 32.8272 33.2719 38.584C30.6777 45.3193 29.2784 52.436 29.1341 59.6291C28.7094 68.8905 28.5811 71.8268 28.5811 95.346C28.5811 118.856 28.5811 121.85 29.1341 131.063C29.2822 138.264 30.6747 145.369 33.2719 152.118C35.5618 157.872 39.0579 163.098 43.5369 167.461C48.0158 171.824 53.379 175.229 59.284 177.456C66.1715 180.087 73.4688 181.552 80.8619 181.789C90.372 182.193 93.384 182.318 117.5 182.318C141.616 182.318 144.707 182.318 154.138 181.789C161.516 181.642 168.815 180.279 175.726 177.755C181.629 175.523 186.99 172.116 191.467 167.752C195.944 163.388 199.439 158.161 201.728 152.407C204.325 145.667 205.718 138.563 205.866 131.361C206.29 122.1 206.419 119.164 206.419 95.6445C206.419 72.1252 206.419 69.1408 205.866 59.9275C205.751 52.6327 204.344 45.4121 201.708 38.584ZM189.68 130.351C189.616 135.899 188.577 141.395 186.609 146.601C185.126 150.345 182.855 153.745 179.943 156.582C177.032 159.419 173.543 161.63 169.702 163.073C164.421 164.984 158.842 165.997 153.21 166.068C143.828 166.491 141.181 166.597 117.125 166.597C93.0483 166.597 90.5893 166.597 81.0298 166.068C75.4 166 69.8243 164.987 64.5476 163.073C60.6931 161.639 57.1904 159.431 54.2661 156.594C51.3419 153.756 49.0612 150.352 47.5716 146.601C45.6306 141.451 44.5923 136.019 44.5003 130.533C44.0757 121.388 43.9769 118.808 43.9769 95.3557C43.9769 71.8942 43.9769 69.497 44.5003 60.1682C44.5642 54.6231 45.603 49.1298 47.5716 43.9271C50.5836 36.3312 56.7558 30.3527 64.5476 27.4453C69.8269 25.5405 75.401 24.5279 81.0298 24.4513C90.4214 24.0373 93.0581 23.9218 117.125 23.9218C141.191 23.9218 143.66 23.9218 153.21 24.4513C158.843 24.5173 164.422 25.5302 169.702 27.4453C173.543 28.892 177.031 31.1056 179.942 33.944C182.854 36.7823 185.125 40.1828 186.609 43.9271C188.55 49.0772 189.588 54.5089 189.68 59.9949C190.105 69.1504 190.213 71.7209 190.213 95.1824C190.213 118.634 190.213 121.157 189.789 130.36H189.68V130.351Z" fill="#7A654E"/>
</svg>
